<svg width="180" height="100" viewBox="0 0 180 100" fill="none" xmlns="http://www.w3.org/2000/svg">
<rect width="180" height="100" fill="white"/>
<path d="M15.3818 57.0819C14.1807 57.0982 13.1517 56.8852 12.2948 56.4429C11.4379 56.0007 10.673 55.353 10 54.4999L11.3829 53.029C11.8774 53.7181 12.4426 54.24 13.0783 54.5944C13.7137 54.9337 14.4928 55.0972 15.4157 55.0847C16.3238 55.0724 17.0456 54.8585 17.5811 54.4428C18.1311 54.0269 18.4004 53.4636 18.389 52.7528C18.3796 52.1629 18.2401 51.6883 17.9706 51.3289C17.7011 50.9695 17.3375 50.6795 16.8797 50.4587C16.4364 50.2227 15.9496 50.0175 15.4194 49.8431C14.8889 49.6537 14.3583 49.4566 13.8276 49.252C13.2966 49.0323 12.8089 48.7666 12.3643 48.4549C11.9195 48.1282 11.5537 47.702 11.2669 47.1764C10.9948 46.6506 10.8522 45.987 10.8394 45.1854C10.825 44.2931 11.018 43.5342 11.4181 42.9086C11.8327 42.2676 12.3962 41.7759 13.1086 41.4335C13.8355 41.0758 14.653 40.8908 15.5611 40.8785C16.5572 40.865 17.454 41.0571 18.2515 41.4548C19.0488 41.8373 19.7017 42.3503 20.2102 42.9939L18.8273 44.4648C18.3645 43.9265 17.8672 43.5248 17.3355 43.2597C16.8185 42.9944 16.223 42.8663 15.5492 42.8754C14.729 42.8865 14.0802 43.0843 13.6028 43.469C13.1253 43.8385 12.8919 44.356 12.9025 45.0214C12.911 45.5507 13.0498 45.98 13.3188 46.3091C13.6022 46.623 13.9655 46.8903 14.4085 47.1113C14.8516 47.3322 15.3384 47.5374 15.8689 47.7269C16.4138 47.901 16.9517 48.098 17.4827 48.3177C18.0137 48.5374 18.5017 48.8182 18.9467 49.1601C19.3917 49.502 19.7505 49.951 20.0232 50.507C20.3103 51.0477 20.4605 51.734 20.4738 52.5658C20.4962 53.9571 20.0449 55.0524 19.1201 55.8515C18.2099 56.6504 16.9638 57.0605 15.3818 57.0819Z" fill="black"/>
<path d="M27.2654 56.9213C26.3133 56.9342 25.4452 56.7039 24.661 56.2304C23.8767 55.7418 23.2507 55.0771 22.783 54.2363C22.3299 53.3953 22.0949 52.4455 22.0779 51.3869C22.0609 50.3282 22.2653 49.3724 22.6912 48.5196C23.1316 47.6665 23.7287 46.9853 24.4824 46.4759C25.2507 45.9663 26.1183 45.705 27.085 45.6919C27.876 45.6812 28.5819 45.8457 29.2027 46.1852C29.8379 46.5094 30.3508 46.9714 30.7414 47.5712C31.1317 48.1559 31.3552 48.8411 31.4117 49.627L31.4638 52.871C31.4323 53.6429 31.2309 54.3339 30.8598 54.944C30.5033 55.5539 30.0129 56.037 29.3887 56.3934C28.7788 56.7344 28.071 56.9104 27.2654 56.9213ZM27.564 54.9886C28.5454 54.9753 29.3309 54.6243 29.9206 53.9356C30.51 53.2318 30.796 52.343 30.7788 51.2693C30.7669 50.5282 30.6174 49.8873 30.3304 49.3466C30.0577 48.7906 29.6699 48.3647 29.1671 48.069C28.6639 47.7581 28.0828 47.6071 27.4236 47.6161C26.7645 47.625 26.1811 47.7917 25.6735 48.1162C25.1806 48.4405 24.7921 48.8845 24.5082 49.448C24.2386 49.9962 24.1095 50.6257 24.1209 51.3366C24.1326 52.0625 24.2821 52.7034 24.5694 53.2592C24.8711 53.7997 25.2808 54.2253 25.7986 54.5359C26.3164 54.8466 26.9048 54.9975 27.564 54.9886ZM30.7333 56.6475L30.6867 53.7438L31.0179 51.1072L30.6025 48.5034L30.5603 45.8719L32.5597 45.8448L32.7328 56.6205L30.7333 56.6475Z" fill="black"/>
<path d="M41.1084 56.7342C40.3174 56.7449 39.597 56.5882 38.9471 56.2642C38.3117 55.9249 37.7987 55.4553 37.4081 54.8555C37.0176 54.2557 36.7941 53.5704 36.7378 52.7997L36.6857 49.5557C36.717 48.7687 36.9183 48.0777 37.2897 47.4827C37.6755 46.8724 38.1806 46.3966 38.8052 46.0554C39.4441 45.6988 40.1517 45.5153 40.9281 45.5048C41.8802 45.492 42.7411 45.7299 43.5108 46.2187C44.2952 46.7073 44.9139 47.3721 45.3669 48.2131C45.8199 49.0541 46.055 50.0039 46.072 51.0625C46.089 52.1212 45.8846 53.077 45.4587 53.9298C45.0329 54.7827 44.4358 55.4639 43.6675 55.9735C42.9135 56.4678 42.0605 56.7213 41.1084 56.7342ZM40.7479 54.8104C41.407 54.8015 41.9831 54.6348 42.476 54.3105C42.9689 53.9862 43.3575 53.5498 43.6417 53.0014C43.9257 52.4379 44.0618 51.7931 44.0502 51.0672C44.0388 50.3564 43.8821 49.7231 43.5801 49.1675C43.2782 48.6119 42.8758 48.1862 42.3729 47.8905C41.8698 47.5796 41.2959 47.4285 40.6514 47.4373C39.9923 47.4462 39.4162 47.6128 38.9233 47.9371C38.4301 48.2463 38.0489 48.6826 37.7795 49.2459C37.5102 49.8093 37.3814 50.4539 37.393 51.1798C37.4045 51.8907 37.5465 52.5241 37.8191 53.0801C38.1062 53.6208 38.5013 54.0466 39.0044 54.3574C39.5222 54.6681 40.1033 54.8191 40.7479 54.8104ZM35.6118 56.5816L35.3516 40.3841L37.3291 40.3573L37.4585 48.4107L37.1268 51.0246L37.5426 53.6511L37.5893 56.5548L35.6118 56.5816Z" fill="black"/>
<path d="M48.4001 56.4087L48.2271 45.6331L50.2046 45.6063L50.3776 56.382L48.4001 56.4087ZM50.2789 50.2342L49.5264 49.904C49.5043 48.5278 49.7943 47.4271 50.3964 46.6021C50.9985 45.7771 51.8781 45.3568 53.0353 45.3412C53.5626 45.334 54.0403 45.4259 54.4682 45.6168C54.8959 45.7925 55.2964 46.0972 55.6696 46.5309L54.3955 47.9322C54.1719 47.6932 53.9274 47.5225 53.6621 47.4202C53.3967 47.3179 53.0882 47.2692 52.7367 47.2739C52.0043 47.2838 51.4076 47.5339 50.9467 48.0242C50.4857 48.5145 50.2631 49.2512 50.2789 50.2342Z" fill="black"/>
<path d="M57.2409 56.2892L57.0679 45.5136L59.0454 45.4868L59.2184 56.2625L57.2409 56.2892ZM58.022 43.3451C57.6558 43.35 57.3536 43.2331 57.1153 42.9943C56.8768 42.7404 56.7546 42.4243 56.7485 42.0462C56.7427 41.6833 56.855 41.3792 57.0855 41.1341C57.3157 40.8738 57.6139 40.7412 57.9801 40.7362C58.3463 40.7313 58.6487 40.8558 58.8872 41.1097C59.1254 41.3485 59.2475 41.6494 59.2533 42.0124C59.2594 42.3905 59.1473 42.7097 58.917 42.9699C58.6866 43.2151 58.3882 43.3401 58.022 43.3451Z" fill="black"/>
<path d="M69.5152 56.1233L69.4143 49.8394C69.4012 49.0227 69.1413 48.3531 68.6348 47.8305C68.1283 47.3079 67.4795 47.0519 66.6885 47.0626C66.1612 47.0698 65.6944 47.1971 65.2882 47.4446C64.8819 47.6921 64.565 48.0292 64.3374 48.4558C64.1098 48.8825 64.0004 49.368 64.0092 49.9125L63.1886 49.4471C63.1755 48.6304 63.3396 47.9021 63.6809 47.2621C64.0223 46.6222 64.505 46.1165 65.129 45.745C65.7528 45.3584 66.4602 45.1597 67.2512 45.149C68.0422 45.1383 68.7412 45.3331 69.3483 45.7333C69.9701 46.1333 70.4621 46.6637 70.8244 47.3244C71.1864 47.97 71.3733 48.6633 71.3852 49.4043L71.4927 56.0966L69.5152 56.1233ZM62.1326 56.2231L61.9596 45.4475L63.937 45.4207L64.1101 56.1964L62.1326 56.2231Z" fill="black"/>
<path d="M78.612 56.2273C77.6599 56.2401 76.7917 56.0098 76.0076 55.5364C75.2233 55.0478 74.5972 54.3831 74.1296 53.5423C73.6765 52.7013 73.4415 51.7515 73.4245 50.6928C73.4075 49.6342 73.6119 48.6784 74.0378 47.8255C74.4782 46.9725 75.0753 46.2912 75.829 45.7819C76.5973 45.2723 77.4649 45.011 78.4316 44.9979C79.2226 44.9872 79.9285 45.1516 80.5493 45.4912C81.1845 45.8154 81.6974 46.2774 82.088 46.8772C82.4783 47.4619 82.7017 48.1471 82.7583 48.933L82.8104 52.177C82.7789 52.9489 82.5775 53.6399 82.2064 54.25C81.8499 54.8599 81.3595 55.343 80.7352 55.6994C80.1254 56.0404 79.4176 56.2164 78.612 56.2273ZM78.9106 54.2945C79.892 54.2813 80.6775 53.9303 81.2672 53.2416C81.8566 52.5378 82.1426 51.649 82.1254 50.5752C82.1135 49.8342 81.964 49.1933 81.677 48.6526C81.4043 48.0966 81.0165 47.6707 80.5136 47.375C80.0105 47.0641 79.4294 46.9131 78.7702 46.922C78.1111 46.9309 77.5277 47.0977 77.0201 47.4222C76.5272 47.7465 76.1387 48.1904 75.8548 48.754C75.5852 49.3022 75.4561 49.9317 75.4675 50.6425C75.4792 51.3685 75.6287 52.0093 75.916 52.5652C76.2177 53.1056 76.6274 53.5312 77.1452 53.8419C77.663 54.1526 78.2514 54.3034 78.9106 54.2945ZM82.0799 55.9535L82.0333 53.0497L82.3645 50.4132L81.9491 47.8094L81.9069 45.1778L83.9063 45.1508L84.0794 55.9265L82.0799 55.9535Z" fill="black"/>
<path d="M93.1661 49.6772L93.1363 47.817L97.289 47.7609C97.8602 47.7531 98.3636 47.6253 98.7992 47.3774C99.2494 47.1293 99.5955 46.7842 99.8374 46.3423C100.094 45.9001 100.218 45.3766 100.208 44.7716C100.198 44.1667 100.058 43.6467 99.7872 43.2117C99.5311 42.7765 99.1741 42.4409 98.7161 42.2051C98.2728 41.969 97.7655 41.8549 97.1942 41.8626L93.0415 41.9187L93.0117 40.0585L97.2962 40.0006C98.2337 39.9879 99.0717 40.1733 99.8105 40.5566C100.564 40.9397 101.159 41.4914 101.595 42.2115C102.046 42.9164 102.279 43.7604 102.295 44.7434C102.311 45.7113 102.105 46.5612 101.677 47.2931C101.263 48.0097 100.686 48.5772 99.946 48.9956C99.2199 49.3987 98.3881 49.6066 97.4507 49.6193L93.1661 49.6772ZM91.8803 55.821L91.6274 40.0772L93.6928 40.0493L93.9456 55.7931L91.8803 55.821Z" fill="black"/>
<path d="M109.024 55.8162C107.999 55.8301 107.072 55.593 106.244 55.105C105.415 54.617 104.753 53.9528 104.256 53.1124C103.759 52.2569 103.502 51.2998 103.485 50.2411C103.468 49.1976 103.694 48.2567 104.164 47.4183C104.634 46.5649 105.275 45.883 106.087 45.3729C106.9 44.8627 107.819 44.6007 108.844 44.5868C109.855 44.5732 110.774 44.8103 111.602 45.2983C112.445 45.771 113.115 46.4275 113.612 47.2679C114.109 48.1083 114.366 49.0503 114.383 50.0938C114.4 51.1525 114.173 52.1161 113.704 52.9847C113.234 53.8382 112.586 54.5201 111.759 55.0304C110.946 55.5406 110.035 55.8025 109.024 55.8162ZM108.993 53.8425C109.652 53.8336 110.235 53.6669 110.743 53.3424C111.25 53.0179 111.646 52.5814 111.93 52.033C112.214 51.4694 112.351 50.8323 112.339 50.1215C112.328 49.4258 112.164 48.8078 111.848 48.2675C111.546 47.727 111.137 47.309 110.619 47.0134C110.116 46.7025 109.535 46.5516 108.876 46.5605C108.216 46.5694 107.633 46.7361 107.126 47.0606C106.618 47.37 106.222 47.7989 105.937 48.3474C105.653 48.8958 105.517 49.5178 105.528 50.2135C105.539 50.9243 105.696 51.5576 105.998 52.1132C106.3 52.6537 106.709 53.0792 107.227 53.3899C107.745 53.7006 108.333 53.8515 108.993 53.8425Z" fill="black"/>
<path d="M122.194 55.6382C121.403 55.6489 120.683 55.4922 120.033 55.1682C119.398 54.8289 118.885 54.3593 118.494 53.7595C118.104 53.1597 117.88 52.4744 117.824 51.7037L117.772 48.4597C117.803 47.6727 118.004 46.9817 118.376 46.3867C118.761 45.7764 119.267 45.3006 119.891 44.9594C120.53 44.6028 121.238 44.4193 122.014 44.4088C122.966 44.396 123.827 44.6339 124.597 45.1227C125.381 45.6113 126 46.2761 126.453 47.1171C126.906 47.9581 127.141 48.9079 127.158 49.9665C127.175 51.0252 126.971 51.981 126.545 52.8338C126.119 53.6867 125.522 54.3679 124.753 54.8775C124 55.3717 123.147 55.6253 122.194 55.6382ZM121.834 53.7144C122.493 53.7054 123.069 53.5388 123.562 53.2145C124.055 52.8902 124.443 52.4538 124.728 51.9054C125.012 51.3418 125.148 50.6971 125.136 49.9712C125.125 49.2604 124.968 48.6271 124.666 48.0715C124.364 47.5159 123.962 47.0902 123.459 46.7945C122.956 46.4836 122.382 46.3325 121.737 46.3413C121.078 46.3502 120.502 46.5168 120.009 46.8411C119.516 47.1503 119.135 47.5866 118.866 48.1499C118.596 48.7133 118.467 49.3579 118.479 50.0838C118.49 50.7947 118.632 51.4281 118.905 51.9841C119.192 52.5248 119.587 52.9506 120.09 53.2614C120.608 53.5721 121.189 53.7231 121.834 53.7144ZM116.77 60L116.525 44.7099L118.502 44.6832L118.548 47.5189L118.216 50.1328L118.632 52.7593L118.748 59.9733L116.77 60Z" fill="black"/>
<path d="M134.324 55.4742C133.284 55.4883 132.342 55.259 131.5 54.7863C130.657 54.2985 129.987 53.6344 129.49 52.794C128.993 51.9536 128.736 50.9965 128.718 49.9228C128.701 48.8641 128.92 47.9081 129.375 47.0549C129.845 46.2014 130.479 45.5273 131.277 45.0324C132.089 44.5222 133.001 44.2603 134.011 44.2467C134.978 44.2336 135.831 44.449 136.571 44.8928C137.325 45.3364 137.914 45.9562 138.337 46.7522C138.775 47.548 139.002 48.4526 139.018 49.4659C139.02 49.6171 139.016 49.7836 139.004 49.9653C138.992 50.1318 138.966 50.3288 138.926 50.5563L130.115 50.6754L130.088 48.9739L137.844 48.8691L137.129 49.5368C137.118 48.8108 136.983 48.2 136.726 47.7043C136.469 47.1935 136.111 46.805 135.653 46.5389C135.194 46.2577 134.642 46.1214 133.998 46.1302C133.324 46.1393 132.733 46.2985 132.225 46.6079C131.717 46.9173 131.329 47.3461 131.059 47.8944C130.79 48.4426 130.661 49.0872 130.673 49.8283C130.685 50.5845 130.842 51.2479 131.144 51.8187C131.446 52.3743 131.871 52.8072 132.418 53.1175C132.965 53.4126 133.59 53.5555 134.293 53.546C134.879 53.538 135.412 53.4249 135.892 53.2067C136.386 52.9882 136.806 52.6649 137.151 52.2367L138.446 53.5579C137.958 54.1696 137.35 54.6392 136.623 54.9667C135.91 55.294 135.144 55.4631 134.324 55.4742Z" fill="black"/>
<path d="M144.587 55.3355C144.002 55.3434 143.444 55.2753 142.914 55.1312C142.399 54.9718 141.919 54.7514 141.475 54.47C141.031 54.1734 140.644 53.8232 140.315 53.4192L141.568 52.0862C141.957 52.565 142.402 52.922 142.904 53.1573C143.406 53.3774 143.964 53.4833 144.58 53.475C145.195 53.4667 145.669 53.3544 146.003 53.1381C146.336 52.9067 146.499 52.5944 146.493 52.2011C146.487 51.8079 146.343 51.5073 146.061 51.2994C145.794 51.0761 145.447 50.8992 145.02 50.7689C144.592 50.6234 144.136 50.4858 143.65 50.3563C143.179 50.2114 142.729 50.0283 142.301 49.8072C141.873 49.5861 141.516 49.2808 141.231 48.8914C140.961 48.5017 140.821 47.9817 140.811 47.3314C140.8 46.6811 140.945 46.1194 141.245 45.6465C141.545 45.1583 141.964 44.7821 142.502 44.5176C143.054 44.253 143.719 44.1154 144.495 44.105C145.315 44.0939 146.043 44.2353 146.678 44.5293C147.327 44.8079 147.861 45.2394 148.281 45.8236L147.027 47.1566C146.728 46.7674 146.357 46.4699 145.914 46.2641C145.486 46.0581 145.001 45.9587 144.459 45.9661C143.888 45.9738 143.45 46.0856 143.146 46.3015C142.856 46.502 142.714 46.7838 142.72 47.1468C142.726 47.5098 142.862 47.7878 143.129 47.9808C143.396 48.1739 143.742 48.3356 144.169 48.4659C144.611 48.5961 145.067 48.7336 145.539 48.8785C146.01 49.0083 146.459 49.1913 146.888 49.4276C147.317 49.6638 147.666 49.9843 147.936 50.3891C148.221 50.7937 148.369 51.3287 148.38 51.9941C148.396 53.0074 148.057 53.8137 147.364 54.413C146.685 55.0122 145.759 55.3197 144.587 55.3355Z" fill="black"/>
<path d="M155.414 55.1892C154.389 55.203 153.455 54.9661 152.612 54.4783C151.784 53.9903 151.121 53.3261 150.624 52.4857C150.141 51.63 149.892 50.6803 149.875 49.6368C149.858 48.5781 150.077 47.6222 150.532 46.7689C151.002 45.9154 151.643 45.2412 152.456 44.7461C153.282 44.2358 154.209 43.9737 155.234 43.9598C156.04 43.9489 156.789 44.0976 157.483 44.4059C158.176 44.6991 158.776 45.1372 159.284 45.7203L157.988 47.0993C157.659 46.7104 157.259 46.4208 156.787 46.2306C156.329 46.025 155.822 45.9259 155.266 45.9334C154.606 45.9424 154.023 46.1091 153.516 46.4336C153.008 46.743 152.612 47.1719 152.327 47.7203C152.043 48.2687 151.907 48.8984 151.918 49.6092C151.93 50.32 152.086 50.9456 152.388 51.4861C152.69 52.0266 153.099 52.4522 153.617 52.7629C154.135 53.0735 154.723 53.2244 155.383 53.2155C155.939 53.208 156.443 53.1029 156.894 52.9001C157.359 52.682 157.757 52.3741 158.088 51.9764L159.406 53.32C158.932 53.9012 158.346 54.3554 157.648 54.6825C156.964 55.0094 156.22 55.1783 155.414 55.1892Z" fill="black"/>
<path d="M165.593 55.0516C164.743 55.0631 163.971 54.8768 163.276 54.4929C162.596 54.0937 162.06 53.5413 161.667 52.8356C161.275 52.1299 161.072 51.3083 161.057 50.3706L160.956 44.1094L162.933 44.0826L163.033 50.2531C163.042 50.8429 163.145 51.3559 163.343 51.7919C163.555 52.2126 163.853 52.5338 164.237 52.7555C164.622 52.9772 165.071 53.0846 165.583 53.0776C166.36 53.0671 166.963 52.8094 167.395 52.3044C167.826 51.7842 168.035 51.078 168.02 50.1857L167.921 44.0152L169.899 43.9885L169.999 50.2497C170.014 51.1874 169.837 52.0142 169.468 52.7302C169.098 53.4461 168.58 54.0128 167.913 54.4303C167.26 54.8324 166.486 55.0395 165.593 55.0516Z" fill="black"/>
</svg>
