<svg width="160" height="20" viewBox="0 0 160 20" fill="none" xmlns="http://www.w3.org/2000/svg">
<path d="M5.3818 17.0819C4.1807 17.0982 3.1517 16.8852 2.2948 16.4429C1.4379 16.0007 0.673 15.353 0 14.4999L1.3829 13.029C1.8774 13.7181 2.4426 14.24 3.0783 14.5944C3.7137 14.9337 4.4928 15.0972 5.4157 15.0847C6.3238 15.0724 7.0456 14.8585 7.5811 14.4428C8.1311 14.0269 8.4004 13.4636 8.389 12.7528C8.3796 12.1629 8.2401 11.6883 7.9706 11.3289C7.7011 10.9695 7.3375 10.6795 6.8797 10.4587C6.4364 10.2227 5.9496 10.0175 5.4194 9.8431C4.8889 9.6537 4.3583 9.4566 3.8276 9.252C3.2966 9.0323 2.8089 8.7666 2.3643 8.4549C1.9195 8.1282 1.5537 7.702 1.2669 7.1764C0.9948 6.6506 0.8522 5.987 0.8394 5.1854C0.825 4.2931 1.018 3.5342 1.4181 2.9086C1.8327 2.2676 2.3962 1.7759 3.1086 1.4335C3.8355 1.0758 4.653 0.890803 5.5611 0.878503C6.5572 0.865003 7.454 1.0571 8.2515 1.4548C9.0488 1.8373 9.7017 2.3503 10.2102 2.9939L8.8273 4.4648C8.3645 3.9265 7.8672 3.5248 7.3355 3.2597C6.8185 2.9944 6.223 2.8663 5.5492 2.8754C4.729 2.8865 4.0802 3.0843 3.6028 3.469C3.1253 3.8385 2.8919 4.356 2.9025 5.0214C2.911 5.5507 3.0498 5.98 3.3188 6.3091C3.6022 6.623 3.9655 6.8903 4.4085 7.1113C4.8516 7.3322 5.3384 7.5374 5.8689 7.7269C6.4138 7.901 6.9517 8.098 7.4827 8.3177C8.0137 8.5374 8.5017 8.8182 8.9467 9.1601C9.3917 9.502 9.7505 9.951 10.0232 10.507C10.3103 11.0477 10.4605 11.734 10.4738 12.5658C10.4962 13.9571 10.0449 15.0524 9.1201 15.8515C8.2099 16.6504 6.9638 17.0605 5.3818 17.0819Z" fill="black"/>
<path d="M17.2654 16.9213C16.3133 16.9342 15.4452 16.7039 14.661 16.2304C13.8767 15.7418 13.2507 15.0771 12.783 14.2363C12.3299 13.3953 12.0949 12.4455 12.0779 11.3869C12.0609 10.3282 12.2653 9.3724 12.6912 8.5196C13.1316 7.6665 13.7287 6.9853 14.4824 6.4759C15.2507 5.9663 16.1183 5.705 17.085 5.6919C17.876 5.6812 18.5819 5.8457 19.2027 6.1852C19.8379 6.5094 20.3508 6.9714 20.7414 7.5712C21.1317 8.1559 21.3552 8.8411 21.4117 9.627L21.4638 12.871C21.4323 13.6429 21.2309 14.3339 20.8598 14.944C20.5033 15.5539 20.0129 16.037 19.3887 16.3934C18.7788 16.7344 18.071 16.9104 17.2654 16.9213ZM17.564 14.9886C18.5454 14.9753 19.3309 14.6243 19.9206 13.9356C20.51 13.2318 20.796 12.343 20.7788 11.2693C20.7669 10.5282 20.6174 9.8873 20.3304 9.3466C20.0577 8.7906 19.6699 8.3647 19.1671 8.069C18.6639 7.7581 18.0828 7.6071 17.4236 7.6161C16.7645 7.625 16.1811 7.7917 15.6735 8.1162C15.1806 8.4405 14.7921 8.8845 14.5082 9.448C14.2386 9.9962 14.1095 10.6257 14.1209 11.3366C14.1326 12.0625 14.2821 12.7034 14.5694 13.2592C14.8711 13.7997 15.2808 14.2253 15.7986 14.5359C16.3164 14.8466 16.9048 14.9975 17.564 14.9886ZM20.7333 16.6475L20.6867 13.7438L21.0179 11.1072L20.6025 8.5034L20.5603 5.8719L22.5597 5.8448L22.7328 16.6205L20.7333 16.6475Z" fill="black"/>
<path d="M31.1084 16.7342C30.3174 16.7449 29.597 16.5882 28.9471 16.2642C28.3117 15.9249 27.7987 15.4553 27.4081 14.8555C27.0176 14.2557 26.7941 13.5704 26.7378 12.7997L26.6857 9.5557C26.717 8.7687 26.9183 8.0777 27.2897 7.4827C27.6755 6.8724 28.1806 6.3966 28.8052 6.0554C29.4441 5.6988 30.1517 5.5153 30.9281 5.5048C31.8802 5.492 32.7411 5.7299 33.5108 6.2187C34.2952 6.7073 34.9139 7.3721 35.3669 8.2131C35.8199 9.0541 36.055 10.0039 36.072 11.0625C36.089 12.1212 35.8846 13.077 35.4587 13.9298C35.0329 14.7827 34.4358 15.4639 33.6675 15.9735C32.9135 16.4678 32.0605 16.7213 31.1084 16.7342ZM30.7479 14.8104C31.407 14.8015 31.9831 14.6348 32.476 14.3105C32.9689 13.9862 33.3575 13.5498 33.6417 13.0014C33.9257 12.4379 34.0618 11.7931 34.0502 11.0672C34.0388 10.3564 33.8821 9.7231 33.5801 9.1675C33.2782 8.6119 32.8758 8.1862 32.3729 7.8905C31.8698 7.5796 31.2959 7.4285 30.6514 7.4373C29.9923 7.4462 29.4162 7.6128 28.9233 7.9371C28.4301 8.2463 28.0489 8.6826 27.7795 9.2459C27.5102 9.8093 27.3814 10.4539 27.393 11.1798C27.4045 11.8907 27.5465 12.5241 27.8191 13.0801C28.1062 13.6208 28.5013 14.0466 29.0044 14.3574C29.5222 14.6681 30.1033 14.8191 30.7479 14.8104ZM25.6118 16.5816L25.3516 0.384102L27.3291 0.3573L27.4585 8.4107L27.1268 11.0246L27.5426 13.6511L27.5893 16.5548L25.6118 16.5816Z" fill="black"/>
<path d="M38.4001 16.4087L38.2271 5.63311L40.2046 5.60631L40.3776 16.382L38.4001 16.4087ZM40.2789 10.2342L39.5264 9.90401C39.5043 8.52781 39.7943 7.42711 40.3964 6.60211C40.9985 5.77711 41.8781 5.35681 43.0353 5.34121C43.5626 5.33401 44.0403 5.42591 44.4682 5.61681C44.8959 5.79251 45.2964 6.09721 45.6696 6.53091L44.3955 7.93221C44.1719 7.69321 43.9274 7.52251 43.6621 7.42021C43.3967 7.31791 43.0882 7.26921 42.7367 7.27391C42.0043 7.28381 41.4076 7.53391 40.9467 8.02421C40.4857 8.51451 40.2631 9.25121 40.2789 10.2342Z" fill="black"/>
<path d="M47.2409 16.2892L47.0679 5.51359L49.0454 5.4868L49.2184 16.2625L47.2409 16.2892ZM48.022 3.34509C47.6558 3.34999 47.3536 3.2331 47.1153 2.9943C46.8768 2.7404 46.7546 2.42429 46.7485 2.04619C46.7427 1.68329 46.855 1.3792 47.0855 1.1341C47.3157 0.873796 47.6139 0.741193 47.9801 0.736193C48.3463 0.731293 48.6487 0.855793 48.8872 1.10969C49.1254 1.34849 49.2475 1.6494 49.2533 2.0124C49.2594 2.3905 49.1473 2.70969 48.917 2.96989C48.6866 3.21509 48.3882 3.34009 48.022 3.34509Z" fill="black"/>
<path d="M59.5152 16.1233L59.4143 9.83938C59.4012 9.02268 59.1413 8.35308 58.6348 7.83048C58.1283 7.30788 57.4795 7.05188 56.6885 7.06258C56.1612 7.06978 55.6944 7.19708 55.2882 7.44458C54.8819 7.69208 54.565 8.02918 54.3374 8.45578C54.1098 8.88248 54.0004 9.36798 54.0092 9.91248L53.1886 9.44708C53.1755 8.63038 53.3396 7.90208 53.6809 7.26208C54.0223 6.62218 54.505 6.11648 55.129 5.74498C55.7528 5.35838 56.4602 5.15968 57.2512 5.14898C58.0422 5.13828 58.7412 5.33308 59.3483 5.73328C59.9701 6.13328 60.4621 6.66368 60.8244 7.32438C61.1864 7.96998 61.3733 8.66328 61.3852 9.40428L61.4927 16.0966L59.5152 16.1233ZM52.1326 16.2231L51.9596 5.44748L53.937 5.42068L54.1101 16.1964L52.1326 16.2231Z" fill="black"/>
<path d="M68.612 16.2273C67.6599 16.2401 66.7917 16.0098 66.0076 15.5364C65.2233 15.0478 64.5972 14.3831 64.1296 13.5423C63.6765 12.7013 63.4415 11.7515 63.4245 10.6928C63.4075 9.6342 63.6119 8.6784 64.0378 7.8255C64.4782 6.9725 65.0753 6.2912 65.829 5.7819C66.5973 5.2723 67.4649 5.011 68.4316 4.9979C69.2226 4.9872 69.9285 5.1516 70.5493 5.4912C71.1845 5.8154 71.6974 6.2774 72.088 6.8772C72.4783 7.4619 72.7017 8.1471 72.7583 8.933L72.8104 12.177C72.7789 12.9489 72.5775 13.6399 72.2064 14.25C71.8499 14.8599 71.3595 15.343 70.7352 15.6994C70.1254 16.0404 69.4176 16.2164 68.612 16.2273ZM68.9106 14.2945C69.892 14.2813 70.6775 13.9303 71.2672 13.2416C71.8566 12.5378 72.1426 11.649 72.1254 10.5752C72.1135 9.8342 71.964 9.1933 71.677 8.6526C71.4043 8.0966 71.0165 7.6707 70.5136 7.375C70.0105 7.0641 69.4294 6.9131 68.7702 6.922C68.1111 6.9309 67.5277 7.0977 67.0201 7.4222C66.5272 7.7465 66.1387 8.1904 65.8548 8.754C65.5852 9.3022 65.4561 9.9317 65.4675 10.6425C65.4792 11.3685 65.6287 12.0093 65.916 12.5652C66.2177 13.1056 66.6274 13.5312 67.1452 13.8419C67.663 14.1526 68.2514 14.3034 68.9106 14.2945ZM72.0799 15.9535L72.0333 13.0497L72.3645 10.4132L71.9491 7.8094L71.9069 5.1778L73.9063 5.1508L74.0794 15.9265L72.0799 15.9535Z" fill="black"/>
<path d="M83.1661 9.67721L83.1363 7.81701L87.289 7.76091C87.8602 7.75311 88.3636 7.62531 88.7992 7.37741C89.2494 7.12931 89.5955 6.78421 89.8374 6.34231C90.094 5.90011 90.218 5.37661 90.208 4.77161C90.198 4.16671 90.058 3.64671 89.7872 3.21171C89.5311 2.77651 89.1741 2.44091 88.7161 2.20511C88.2728 1.96901 87.7655 1.85491 87.1942 1.86261L83.0415 1.91871L83.0117 0.0585101L87.2962 0.000610646C88.2337 -0.0120894 89.0717 0.17331 89.8105 0.55661C90.564 0.93971 91.159 1.49141 91.595 2.21151C92.046 2.91641 92.279 3.76041 92.295 4.74341C92.311 5.71131 92.105 6.56121 91.677 7.29311C91.263 8.00971 90.686 8.57721 89.946 8.99561C89.2199 9.39871 88.3881 9.60661 87.4507 9.61931L83.1661 9.67721ZM81.8803 15.821L81.6274 0.0772136L83.6928 0.0493129L83.9456 15.7931L81.8803 15.821Z" fill="black"/>
<path d="M99.024 15.8162C97.999 15.8301 97.072 15.593 96.244 15.105C95.415 14.617 94.753 13.9528 94.256 13.1124C93.759 12.2569 93.502 11.2998 93.485 10.2411C93.468 9.1976 93.694 8.2567 94.164 7.4183C94.634 6.5649 95.275 5.88299 96.087 5.37289C96.9 4.86269 97.819 4.6007 98.844 4.5868C99.855 4.5732 100.774 4.8103 101.602 5.2983C102.445 5.771 103.115 6.4275 103.612 7.26789C104.109 8.10829 104.366 9.0503 104.383 10.0938C104.4 11.1525 104.173 12.1161 103.704 12.9847C103.234 13.8382 102.586 14.5201 101.759 15.0304C100.946 15.5406 100.035 15.8025 99.024 15.8162ZM98.993 13.8425C99.652 13.8336 100.235 13.6669 100.743 13.3424C101.25 13.0179 101.646 12.5814 101.93 12.033C102.214 11.4694 102.351 10.8323 102.339 10.1215C102.328 9.42579 102.164 8.8078 101.848 8.2675C101.546 7.727 101.137 7.309 100.619 7.0134C100.116 6.7025 99.535 6.5516 98.876 6.5605C98.216 6.5694 97.633 6.7361 97.126 7.0606C96.618 7.37 96.222 7.7989 95.937 8.3474C95.653 8.8958 95.517 9.5178 95.528 10.2135C95.539 10.9243 95.696 11.5576 95.998 12.1132C96.3 12.6537 96.709 13.0792 97.227 13.3899C97.745 13.7006 98.333 13.8515 98.993 13.8425Z" fill="black"/>
<path d="M112.194 15.6382C111.403 15.6489 110.683 15.4922 110.033 15.1682C109.398 14.8289 108.885 14.3593 108.494 13.7595C108.104 13.1597 107.88 12.4744 107.824 11.7037L107.772 8.45972C107.803 7.67272 108.004 6.98172 108.376 6.38672C108.761 5.77642 109.267 5.30062 109.891 4.95942C110.53 4.60282 111.238 4.41932 112.014 4.40882C112.966 4.39602 113.827 4.63392 114.597 5.12272C115.381 5.61132 116 6.27612 116.453 7.11712C116.906 7.95812 117.141 8.90792 117.158 9.96652C117.175 11.0252 116.971 11.981 116.545 12.8338C116.119 13.6867 115.522 14.3679 114.753 14.8775C114 15.3717 113.147 15.6253 112.194 15.6382ZM111.834 13.7144C112.493 13.7054 113.069 13.5388 113.562 13.2145C114.055 12.8902 114.443 12.4538 114.728 11.9054C115.012 11.3418 115.148 10.6971 115.136 9.97122C115.125 9.26042 114.968 8.62712 114.666 8.07152C114.364 7.51592 113.962 7.09022 113.459 6.79452C112.956 6.48362 112.382 6.33252 111.737 6.34132C111.078 6.35022 110.502 6.51682 110.009 6.84112C109.516 7.15032 109.135 7.58662 108.866 8.14992C108.596 8.71332 108.467 9.35792 108.479 10.0838C108.49 10.7947 108.632 11.4281 108.905 11.9841C109.192 12.5248 109.587 12.9506 110.09 13.2614C110.608 13.5721 111.189 13.7231 111.834 13.7144ZM106.77 20L106.525 4.70992L108.502 4.68322L108.548 7.51892L108.216 10.1328L108.632 12.7593L108.748 19.9733L106.77 20Z" fill="black"/>
<path d="M124.324 15.4742C123.284 15.4883 122.342 15.259 121.5 14.7863C120.657 14.2985 119.987 13.6344 119.49 12.794C118.993 11.9536 118.736 10.9965 118.718 9.92282C118.701 8.86412 118.92 7.90812 119.375 7.05492C119.845 6.20142 120.479 5.52732 121.277 5.03242C122.089 4.52222 123.001 4.26032 124.011 4.24672C124.978 4.23362 125.831 4.44902 126.571 4.89282C127.325 5.33642 127.914 5.95622 128.337 6.75222C128.775 7.54802 129.002 8.45262 129.018 9.46592C129.02 9.61712 129.016 9.78362 129.004 9.96532C128.992 10.1318 128.966 10.3288 128.926 10.5563L120.115 10.6754L120.088 8.97392L127.844 8.86912L127.129 9.53682C127.118 8.81082 126.983 8.20002 126.726 7.70432C126.469 7.19352 126.111 6.80502 125.653 6.53892C125.194 6.25772 124.642 6.12142 123.998 6.13022C123.324 6.13932 122.733 6.29852 122.225 6.60792C121.717 6.91732 121.329 7.34612 121.059 7.89442C120.79 8.44262 120.661 9.08722 120.673 9.82832C120.685 10.5845 120.842 11.2479 121.144 11.8187C121.446 12.3743 121.871 12.8072 122.418 13.1175C122.965 13.4126 123.59 13.5555 124.293 13.546C124.879 13.538 125.412 13.4249 125.892 13.2067C126.386 12.9882 126.806 12.6649 127.151 12.2367L128.446 13.5579C127.958 14.1696 127.35 14.6392 126.623 14.9667C125.91 15.294 125.144 15.4631 124.324 15.4742Z" fill="black"/>
<path d="M134.587 15.3355C134.002 15.3434 133.444 15.2753 132.914 15.1312C132.399 14.9718 131.919 14.7514 131.475 14.47C131.031 14.1734 130.644 13.8232 130.315 13.4192L131.568 12.0862C131.957 12.565 132.402 12.922 132.904 13.1573C133.406 13.3774 133.964 13.4833 134.58 13.475C135.195 13.4667 135.669 13.3544 136.003 13.1381C136.336 12.9067 136.499 12.5944 136.493 12.2011C136.487 11.8079 136.343 11.5073 136.061 11.2994C135.794 11.0761 135.447 10.8992 135.02 10.7689C134.592 10.6234 134.136 10.4858 133.65 10.3563C133.179 10.2114 132.729 10.0283 132.301 9.80721C131.873 9.58611 131.516 9.28081 131.231 8.89141C130.961 8.50171 130.821 7.98171 130.811 7.33141C130.8 6.68111 130.945 6.11941 131.245 5.64651C131.545 5.15831 131.964 4.78211 132.502 4.51761C133.054 4.25301 133.719 4.11541 134.495 4.10501C135.315 4.09391 136.043 4.23531 136.678 4.52931C137.327 4.80791 137.861 5.23941 138.281 5.82361L137.027 7.15661C136.728 6.76741 136.357 6.46991 135.914 6.26411C135.486 6.05811 135.001 5.95871 134.459 5.96611C133.888 5.97381 133.45 6.08561 133.146 6.30151C132.856 6.50201 132.714 6.78381 132.72 7.14681C132.726 7.50981 132.862 7.78781 133.129 7.98081C133.396 8.17391 133.742 8.33561 134.169 8.46591C134.611 8.59611 135.067 8.73361 135.539 8.87851C136.01 9.00831 136.459 9.19131 136.888 9.42761C137.317 9.66381 137.666 9.98431 137.936 10.3891C138.221 10.7937 138.369 11.3287 138.38 11.9941C138.396 13.0074 138.057 13.8137 137.364 14.413C136.685 15.0122 135.759 15.3197 134.587 15.3355Z" fill="black"/>
<path d="M145.414 15.1892C144.389 15.203 143.455 14.9661 142.612 14.4783C141.784 13.9903 141.121 13.3261 140.624 12.4857C140.141 11.63 139.892 10.6803 139.875 9.63679C139.858 8.57809 140.077 7.62219 140.532 6.76889C141.002 5.91539 141.643 5.24119 142.456 4.74609C143.282 4.23579 144.209 3.97369 145.234 3.95979C146.04 3.94889 146.789 4.09759 147.483 4.40589C148.176 4.69909 148.776 5.13718 149.284 5.72028L147.988 7.09929C147.659 6.71039 147.259 6.42078 146.787 6.23058C146.329 6.02498 145.822 5.92589 145.266 5.93339C144.606 5.94239 144.023 6.10909 143.516 6.43359C143.008 6.74299 142.612 7.17188 142.327 7.72028C142.043 8.26868 141.907 8.89839 141.918 9.60919C141.93 10.32 142.086 10.9456 142.388 11.4861C142.69 12.0266 143.099 12.4522 143.617 12.7629C144.135 13.0735 144.723 13.2244 145.383 13.2155C145.939 13.208 146.443 13.1029 146.894 12.9001C147.359 12.682 147.757 12.3741 148.088 11.9764L149.406 13.32C148.932 13.9012 148.346 14.3554 147.648 14.6825C146.964 15.0094 146.22 15.1783 145.414 15.1892Z" fill="black"/>
<path d="M155.593 15.0516C154.743 15.0631 153.971 14.8768 153.276 14.4929C152.596 14.0937 152.06 13.5413 151.667 12.8356C151.275 12.1299 151.072 11.3083 151.057 10.3706L150.956 4.1094L152.933 4.0826L153.033 10.2531C153.042 10.8429 153.145 11.3559 153.343 11.7919C153.555 12.2126 153.853 12.5338 154.237 12.7555C154.622 12.9772 155.071 13.0846 155.583 13.0776C156.36 13.0671 156.963 12.8094 157.395 12.3044C157.826 11.7842 158.035 11.078 158.02 10.1857L157.921 4.0152L159.899 3.98849L159.999 10.2497C160.014 11.1874 159.837 12.0142 159.468 12.7302C159.098 13.4461 158.58 14.0128 157.913 14.4303C157.26 14.8324 156.486 15.0395 155.593 15.0516Z" fill="black"/>
</svg>
